<svg xmlns:figma="http://www.figma.com/figma/ns" viewBox="0 0 109 24" xmlns="http://www.w3.org/2000/svg" xmlns:xlink="http://www.w3.org/1999/xlink">
    <title>
        Logo
    </title>
    <defs>
        <path d="M 22.7 23.2 c 0.3 0.3 0.1 0.8 -0.4 0.8 h -5.9 c -0.3 0 -0.6 -0.1 -0.7 -0.3 l -9.4 -10.5 v 10.4 c 0 0.3 -0.2 0.5 -0.5 0.5 h -5.3 c -0.3 0 -0.5 -0.2 -0.5 -0.5 v -23 c 0 -0.3 0.2 -0.5 0.5 -0.5 h 5.3 c 0.3 0 0.5 0.2 0.5 0.5 v 9.8 l 9.1 -10 c 0.2 -0.2 0.5 -0.3 0.7 -0.3 h 5.8 c 0.4 0 0.7 0.5 0.4 0.8 l -9.9 10.6 l 10.3 11.8 z" id="b"/>
        <path d="M 46 24 c -0.2 0 -0.4 -0.1 -0.5 -0.3 l -2 -4.7 h -10.7 l -2 4.7 c -0.1 0.2 -0.3 0.3 -0.5 0.3 h -5.2 c -0.4 0 -0.6 -0.4 -0.5 -0.7 l 10.8 -23 c 0.1 -0.2 0.3 -0.3 0.5 -0.3 h 4.4 c 0.2 0 0.4 0.1 0.5 0.3 l 10.8 23 c 0.2 0.3 -0.1 0.7 -0.5 0.7 h -5.1 z m -11.1 -9.7 h 6.6 l -3.3 -7.7 l -3.3 7.7 z" id="c"/>
        <path d="M 55.5 24 c -0.3 0 -0.5 -0.2 -0.5 -0.5 v -23 c 0 -0.3 0.2 -0.5 0.5 -0.5 h 5.3 c 0.3 0 0.5 0.2 0.5 0.5 v 18.4 h 9.8 c 0.3 0 0.5 0.2 0.5 0.5 v 4.1 c 0 0.3 -0.2 0.5 -0.5 0.5 h -15.6 z" id="d"/>
        <path d="M 75.3 0.5 c 0 -0.3 0.2 -0.5 0.5 -0.5 h 9.3 c 2.7 0 5 0.5 6.9 1.4 c 1.9 1 3.4 2.3 4.4 4.2 c 1 1.8 1.5 3.9 1.5 6.4 c 0 2.5 -0.5 4.7 -1.5 6.5 c -1 1.8 -2.5 3.2 -4.4 4.1 c -1.9 1 -4.2 1.4 -6.9 1.4 h -9.3 c -0.3 0 -0.5 -0.2 -0.5 -0.5 v -23 z m 9.4 18.5 c 2.4 0 4.1 -0.6 5.3 -1.7 c 1.2 -1.2 1.7 -2.9 1.7 -5.2 c 0 -2.3 -0.6 -4.1 -1.7 -5.2 c -1.2 -1.2 -2.9 -1.7 -5.3 -1.7 h -3.1 v 13.9 h 3.1 z" id="e"/>
        <path d="M 102.9 24 c -0.3 0 -0.5 -0.2 -0.5 -0.5 v -23 c 0 -0.3 0.2 -0.5 0.5 -0.5 h 5.3 c 0.3 0 0.5 0.2 0.5 0.5 v 23 c 0 0.3 -0.2 0.5 -0.5 0.5 h -5.3 z" id="f"/>
    </defs>
    <text font-weight="500" fill="rgba(42, 148, 21, 0.86)" font-family="'ITC Avant Garde Pro XLt'" font-size="27.2" textLength="79.3" x="14.6" y="23.7">
        LOGO
    </text>
</svg>