<svg width="512" height="512" xmlns="http://www.w3.org/2000/svg">

 <g>
  <title>background</title>
  <rect fill="none" id="canvas_background" height="402" width="582" y="-1" x="-1"/>
 </g>
 <g>
  <title>Layer 1</title>
  <path id="svg_2" fill="#6A6E7C" d="m403.3,360l-293.2,0c-5.8,0 -10.5,-4.7 -10.5,-10.5l0,-193.7c0,-5.8 4.7,-10.5 10.5,-10.5l293.2,0c5.8,0 10.5,4.7 10.5,10.5l0,193.6c0,5.8 -4.7,10.6 -10.5,10.6zm-282.7,-21.1l272.1,0l0,-172.6l-272.1,0l0,172.6z"/>
  <path id="svg_3" fill="#6A6E7C" d="m10.5,170.4c-5.8,0 -10.5,-4.7 -10.5,-10.5l0,-99.6c0,-5.8 4.7,-10.5 10.5,-10.5l96.8,0c5.8,0 10.5,4.7 10.5,10.5s-4.7,10.5 -10.5,10.5l-86.2,0l0,89c0,5.9 -4.7,10.6 -10.6,10.6z"/>
  <path id="svg_4" fill="#6A6E7C" d="m110.1,462.2l-99.6,0c-5.8,0 -10.5,-4.7 -10.5,-10.5l0,-98.2c0,-5.8 4.7,-10.5 10.5,-10.5s10.5,4.7 10.5,10.5l0,87.6l89,0c5.8,0 10.5,4.7 10.5,10.5c0.1,5.9 -4.6,10.6 -10.4,10.6z"/>
  <path id="svg_5" fill="#6A6E7C" d="m501.5,462.2l-95.5,0c-5.8,0 -10.5,-4.7 -10.5,-10.5c0,-5.8 4.7,-10.5 10.5,-10.5l84.9,0l0,-87.6c0,-5.8 4.7,-10.5 10.5,-10.5c5.8,0 10.5,4.7 10.5,10.5l0,98.2c0.1,5.7 -4.6,10.4 -10.4,10.4z"/>
  <path id="svg_6" fill="#6A6E7C" d="m501.5,167.7c-5.8,0 -10.5,-4.7 -10.5,-10.5l0,-86.3l-87.6,0c-5.8,0 -10.5,-4.7 -10.5,-10.5s4.7,-10.5 10.5,-10.5l98.2,0c5.8,0 10.5,4.7 10.5,10.5l0,96.8c-0.1,5.8 -4.8,10.5 -10.6,10.5z"/>
 </g>
</svg>