<svg width="512" height="512" xmlns="http://www.w3.org/2000/svg">

 <g>
  <title>background</title>
  <rect fill="none" id="canvas_background" height="402" width="582" y="-1" x="-1"/>
 </g>
 <g>
  <title>Layer 1</title>
  <path id="svg_2" fill="#6A6E7C" d="m94.6,169.4l-84.1,0c-5.8,0 -10.5,-4.7 -10.5,-10.5c0,-5.8 4.7,-10.5 10.5,-10.5l73.5,0l0,-77.2c0,-5.8 4.7,-10.5 10.5,-10.5s10.5,4.7 10.5,10.5l0,87.7c0.2,5.8 -4.6,10.5 -10.4,10.5z"/>
  <path id="svg_3" fill="#6A6E7C" d="m96.4,451.3c-5.8,0 -10.5,-4.7 -10.5,-10.5l0,-71.7l-75.4,0c-5.8,0 -10.5,-4.7 -10.5,-10.5c0,-5.8 4.7,-10.5 10.5,-10.5l85.9,0c5.8,0 10.5,4.7 10.5,10.5l0,82.2c0.1,5.8 -4.7,10.5 -10.5,10.5z"/>
  <path id="svg_4" fill="#6A6E7C" d="m424.6,451.3c-5.8,0 -10.5,-4.7 -10.5,-10.5l0,-82.2c0,-5.8 4.7,-10.5 10.5,-10.5l76.8,0c5.8,0 10.5,4.7 10.5,10.5c0,5.8 -4.7,10.5 -10.5,10.5l-66.3,0l0,71.7c0.1,5.8 -4.6,10.5 -10.5,10.5z"/>
  <path id="svg_5" fill="#6A6E7C" d="m501.5,169.4l-76.8,0c-5.8,0 -10.5,-4.7 -10.5,-10.5l0,-87.7c0,-5.8 4.7,-10.5 10.5,-10.5c5.8,0 10.5,4.7 10.5,10.5l0,77.1l66.3,0c5.8,0 10.5,4.7 10.5,10.5c0,5.9 -4.7,10.6 -10.5,10.6z"/>
 </g>
</svg>